<svg width="313" height="313" viewBox="25 25 253 253" fill="none" xmlns="http://www.w3.org/2000/svg">
<path fill-rule="evenodd" clip-rule="evenodd" d="M62.6321 152.134C62.6321 152.134 53.3551 144.209 66.3701 116.846C79.3852 89.484 105.743 95.4814 122.591 84.7188C147.484 68.8166 137.281 56.3719 168.321 54.3659C207.403 51.8402 209.616 92.6551 229.169 92.6551C230.455 92.6551 260.903 80.4208 265.36 113.913C267.604 130.78 229.169 156.501 229.169 156.501C229.169 156.501 213.173 171 212.294 178.16C208.61 208.188 216.293 242.579 130.196 258.412C119.061 260.459 100.572 253.053 90.3712 239.371C82.3798 228.652 50.323 236.257 47.3306 201.016C45.8224 183.255 62.6321 152.134 62.6321 152.134Z" fill="#F1BBC5"/>
<path fill-rule="evenodd" clip-rule="evenodd" d="M110.233 95.657L109.861 95.5897C107.783 95.2034 106.19 94.7292 103.214 93.6974C102.873 93.5791 102.692 93.2065 102.811 92.8652C102.929 92.5239 103.302 92.3432 103.643 92.4615L104.384 92.7168C106.995 93.6077 108.46 94.0161 110.46 94.3689C117.192 95.5558 122.232 92.0999 122.644 85.509C122.667 85.1485 122.977 84.8745 123.338 84.897C123.698 84.9196 123.972 85.2301 123.95 85.5906C123.486 93.0031 117.696 96.973 110.233 95.657Z" fill="#f8f8f8"/>
<path fill-rule="evenodd" clip-rule="evenodd" d="M127.053 102.715L127.428 103.55L128.284 103.796C128.331 103.809 128.357 103.857 128.344 103.904C128.34 103.918 128.332 103.931 128.322 103.941L127.671 104.589L127.708 105.521C127.71 105.569 127.672 105.61 127.624 105.611C127.608 105.612 127.592 105.608 127.578 105.6L126.841 105.181C126.818 105.168 126.79 105.166 126.766 105.175L125.978 105.488C125.933 105.506 125.883 105.484 125.865 105.439C125.859 105.424 125.857 105.408 125.86 105.392L126.026 104.474L125.472 103.742C125.443 103.704 125.45 103.649 125.489 103.62C125.501 103.611 125.515 103.605 125.529 103.603L126.411 103.479L126.899 102.705C126.925 102.664 126.979 102.652 127.02 102.677C127.034 102.687 127.046 102.7 127.053 102.715Z" fill="#f8f8f8"/>
<path fill-rule="evenodd" clip-rule="evenodd" d="M123.92 130.252C124.629 130.114 125.111 129.523 124.996 128.932C124.881 128.341 124.213 127.974 123.504 128.112C122.795 128.25 122.313 128.84 122.428 129.431C122.543 130.022 123.211 130.39 123.92 130.252Z" fill="#F1BBC5"/>
<path fill-rule="evenodd" clip-rule="evenodd" d="M155.453 102.583C156.672 102.096 159.583 105.151 161.877 109.784C162.988 112.029 163.742 114.183 163.939 115.727C163.939 115.727 160.185 107.818 157.896 104.92C157.016 103.808 155.453 102.583 155.453 102.583Z" fill="#E7EAEE"/>
<path fill-rule="evenodd" clip-rule="evenodd" d="M156.024 110.321C154.549 107.046 153.897 104.044 154.391 102.227C153.498 102.51 152.383 103.02 151.275 103.656C149.803 104.5 148.634 105.444 148.607 105.649C148.322 107.791 149.415 111.959 151.23 115.675C153.171 119.649 155.481 122.202 157.269 122.202C157.44 122.202 157.93 122.101 158.421 121.929C159.12 121.685 159.774 121.33 160.31 120.864C160.576 120.633 160.852 120.371 161.141 120.079L161.488 119.72C161.692 119.503 161.904 119.27 162.234 118.901L162.693 118.388L162.713 118.366C160.413 117.526 158.007 114.563 156.208 110.721L156.024 110.321ZM147.397 105.488C147.587 104.059 152.937 100.97 155.379 100.77C155.481 100.706 155.59 100.651 155.707 100.604C157.822 99.7593 161.044 103.379 163.628 108.472L163.806 108.825C164.972 111.181 165.768 113.455 165.985 115.156C166.244 117.188 165.656 118.535 164.113 118.604C164.072 118.764 163.967 118.898 163.828 118.979L163.805 118.991L163.744 119.051C163.684 119.113 163.613 119.19 163.503 119.313L162.744 120.159C162.469 120.463 162.274 120.668 162.01 120.936C161.701 121.249 161.403 121.532 161.111 121.786C159.929 122.812 158.182 123.423 157.269 123.423C156.785 123.423 156.295 123.31 155.805 123.095C155.281 123.642 153.668 124.705 150.731 126.516L148.504 127.879C144.108 130.555 141.174 132.268 140.808 132.268C139.976 132.268 139.173 131.999 138.412 131.501C138.405 131.506 138.398 131.511 138.391 131.515L138.08 131.715C136.998 132.416 135.269 133.582 133.665 134.664L133.665 134.664L133.664 134.665L133.565 134.732C133.772 136.214 134.244 137.7 134.983 139.192C137.605 138.381 139.681 138.107 140.281 138.717C140.907 139.354 141.465 140.507 141.993 142.199C142.094 142.521 141.915 142.863 141.593 142.964C141.271 143.065 140.929 142.885 140.828 142.564C140.371 141.1 139.904 140.116 139.463 139.629L139.445 139.61L139.429 139.611C139.345 139.594 139.22 139.585 139.06 139.588C138.709 139.595 138.228 139.657 137.654 139.771C136.472 140.005 134.979 140.44 133.496 140.987C130.107 142.237 127.491 143.787 126.953 144.961C126.796 145.304 126.816 145.807 127.004 146.577L127.039 146.716C127.067 146.825 127.097 146.933 127.135 147.07L127.356 147.85C127.365 147.884 127.374 147.919 127.386 147.963C127.47 148.29 127.274 148.623 126.948 148.707C126.622 148.792 126.289 148.596 126.204 148.27L126.096 147.875L125.915 147.238C125.894 147.163 125.876 147.093 125.857 147.022C125.571 145.92 125.525 145.147 125.843 144.453C126.382 143.275 128.068 142.056 130.416 140.948L129.905 139.629L129.779 139.295C129.586 138.775 129.361 138.07 129.223 137.555C127.389 138.544 126.111 138.709 124.832 138.012L124.732 137.956C124.479 137.809 124.235 137.64 123.989 137.435L116.835 141.78C116.901 141.923 116.968 142.068 117.036 142.213C117.357 142.902 116.791 143.389 115.923 143.769L115.829 143.808C115.083 144.118 114.409 144.188 114.008 143.748C112.344 141.922 110.583 137.554 111.531 136.555C111.713 136.363 112.193 136.078 113.101 135.601L113.174 135.564C113.192 135.551 113.212 135.539 113.232 135.528L119.92 131.905C119.935 131.896 119.95 131.889 119.966 131.882C119.553 131.199 119.1 130.438 118.6 129.59C118.524 129.467 118.495 129.323 118.515 129.185C118.527 129.097 118.558 129.011 118.609 128.934C118.636 128.892 118.669 128.853 118.708 128.818C120.083 127.514 121.956 126.155 124.306 124.691L124.591 124.514C125.608 123.887 127.67 122.711 129.423 121.711L129.423 121.711L129.423 121.711L129.424 121.711L129.424 121.711L129.424 121.711C130.784 120.935 131.956 120.266 132.309 120.043L132.395 119.986C132.523 119.893 132.674 119.856 132.82 119.872C132.704 118.813 132.694 117.829 132.805 116.995C132.907 116.226 135.466 114.238 139.417 111.575L139.983 111.195C143.294 108.989 146.15 107.323 147.361 106.968C147.328 106.422 147.339 105.924 147.397 105.488ZM147.495 108.206C146.309 108.64 143.339 110.403 140.099 112.587L139.581 112.939C138.122 113.934 136.775 114.904 135.758 115.694L135.475 115.916C135.021 116.276 134.654 116.586 134.387 116.835C134.254 116.959 134.148 117.066 134.074 117.151L134.022 117.212C134.011 117.224 134.008 117.219 134.012 117.181L134.015 117.155C134.014 117.165 134.013 117.174 134.012 117.181L133.996 117.312C133.409 122.463 137.134 130.877 140.7 131.044L140.783 131.046C140.79 131.047 140.798 131.047 140.808 131.047L140.783 131.046C140.716 131.043 140.743 131.024 140.753 131.018L140.863 130.961C140.944 130.919 141.04 130.867 141.151 130.806L141.659 130.522C141.853 130.412 142.07 130.287 142.307 130.151L142.913 129.799C144.069 129.124 145.513 128.264 146.985 127.373L148.385 126.522C150.087 125.482 151.625 124.523 152.781 123.778L153.377 123.391C153.746 123.149 154.057 122.94 154.306 122.766L154.397 122.703C154.529 122.61 154.639 122.529 154.727 122.462C153.154 121.308 151.606 119.177 150.232 116.411L150.133 116.211C148.808 113.499 147.85 110.562 147.495 108.206ZM132.989 121.056C132.548 121.333 131.249 122.075 129.803 122.9L129.803 122.9L129.803 122.9L129.803 122.9L129.802 122.901L129.802 122.901C128.089 123.879 126.171 124.974 125.232 125.553C123.014 126.921 121.224 128.189 119.896 129.383L120.336 130.125C122.261 133.355 123.376 135.054 124.273 136.015C123.975 135.308 123.82 134.411 123.82 133.287C123.82 133.235 123.827 133.185 123.839 133.137C123.78 132.903 123.863 132.646 124.069 132.495L124.485 132.186C124.735 131.997 125.145 131.683 125.611 131.327L125.612 131.327L125.612 131.326C126.633 130.546 127.923 129.561 128.383 129.231C129.83 128.194 130.897 127.612 131.869 127.41C132.333 127.314 132.694 127.589 132.798 128.014L132.815 128.091C132.839 128.218 132.844 128.342 132.843 128.614L132.843 128.7C132.838 129.716 132.939 130.302 133.369 130.979C133.663 131.443 134.096 131.865 134.699 132.244C134.762 132.284 134.815 132.333 134.858 132.389C135.83 131.736 136.741 131.128 137.413 130.693C136.354 129.668 135.4 128.184 134.596 126.365C133.847 124.671 133.292 122.803 132.989 121.056ZM164.774 115.31C164.577 113.766 163.823 111.612 162.711 109.367C160.417 104.733 157.379 101.251 156.16 101.738C154.982 102.209 155.289 105.56 156.984 109.473L157.137 109.819C159.078 114.129 161.852 117.316 163.926 117.385C164.672 117.41 164.964 116.8 164.774 115.31ZM120.597 132.914C121.656 134.626 122.43 135.757 123.104 136.544L116.321 140.664C115.627 139.14 115.005 137.723 114.402 136.283L120.501 132.978C120.536 132.959 120.568 132.938 120.597 132.914ZM133.812 139.577C133.154 138.216 132.699 136.851 132.45 135.483C131.573 136.073 130.81 136.583 130.32 136.902C130.404 137.323 130.716 138.323 130.985 139.034L131.486 140.323L131.534 140.449C132.026 140.241 132.541 140.038 133.074 139.842L133.426 139.713C133.556 139.667 133.684 139.621 133.812 139.577ZM133.79 133.107C133.165 132.673 132.686 132.18 132.338 131.634C131.776 130.749 131.629 129.994 131.622 128.852L131.622 128.75L131.536 128.782C130.917 129.023 130.178 129.457 129.25 130.112L129.094 130.224C128.652 130.54 127.394 131.501 126.38 132.276C125.816 132.707 125.327 133.081 125.096 133.254L125.041 133.294C125.042 135.325 125.549 136.257 126.492 136.709L126.568 136.744C126.792 136.843 126.953 136.893 127.411 137.019C127.42 137.021 127.429 137.024 127.438 137.027C127.913 136.867 128.458 136.6 129.109 136.218L129.351 136.073C129.889 135.738 131.331 134.765 132.918 133.695L132.918 133.695L132.919 133.695L133.79 133.107ZM113.323 136.866L113.417 137.089C114.065 138.626 114.739 140.149 115.503 141.809L115.801 142.453C115.703 142.519 115.575 142.588 115.434 142.65C115.232 142.738 115.026 142.8 114.872 142.821L114.823 142.826L114.748 142.737C114.17 142.025 113.5 140.817 113.015 139.615C112.757 138.974 112.573 138.387 112.49 137.936C112.456 137.752 112.441 137.598 112.442 137.481L112.446 137.403C112.447 137.385 112.447 137.375 112.442 137.374L112.461 137.361C112.564 137.29 112.827 137.136 113.219 136.923L113.323 136.866ZM121.744 135.522C121.508 135.281 121.121 135.277 120.88 135.513C120.457 135.929 119.864 136.315 118.828 136.891L117.773 137.476C117.495 137.634 117.267 137.771 117.06 137.905C116.887 138.017 116.733 138.125 116.594 138.232C116.328 138.439 116.278 138.822 116.485 139.089C116.691 139.355 117.074 139.405 117.341 139.198C117.451 139.113 117.578 139.024 117.724 138.929C117.859 138.842 118.007 138.751 118.179 138.651L118.515 138.459L119.586 137.865C120.615 137.288 121.235 136.875 121.735 136.385C121.976 136.149 121.98 135.762 121.744 135.522Z" fill="#f8f8f8"/>
<path fill-rule="evenodd" clip-rule="evenodd" d="M220.918 133.812C220.835 138.057 216.343 145.121 209.124 153.114C203.895 158.905 197.809 164.502 192.707 168.274L192.389 168.506L192.6 169.444C193.841 174.882 195.461 180.793 194.849 186.755C193.364 201.224 182.046 217.548 167.09 225.568C161.635 228.628 155.435 230.516 149.075 231.337L148.469 231.412C143.726 231.971 139.188 231.878 136.415 231.306C125.651 229.087 116.538 221.562 111.028 210.672C111.009 210.636 110.995 210.598 110.984 210.56C110.259 210.974 109.283 211.436 108.837 211.587L107.616 212C94.4566 216.426 81.4105 220.129 76.081 217.818C74.0521 216.938 73.3586 215.246 74.2071 212.973C75.0317 210.764 77.3181 207.917 81.154 204.374L81.3648 204.18C84.9996 200.848 93.0716 194.759 105.581 185.914L105.584 185.752C106.194 159.543 126.553 139.562 152.143 141.193C159.97 141.692 166.203 144.474 169.316 146.182L170.686 145.447C183.527 138.581 193.831 133.754 201.692 130.865C214.62 126.114 221.014 128.336 220.918 133.812ZM202.113 133.681C187.657 138.993 164.81 150.941 133 170.159L132.034 170.744C107.264 185.738 90.8625 197.13 82.1898 205.08L81.7623 205.475L81.357 205.855C74.8466 212.006 73.6927 215.452 76.5667 216.698C81.4867 218.832 94.699 215.235 107.638 210.991L108.837 210.595C109.991 210.213 110.756 209.994 111.23 209.892C111.251 209.877 111.273 209.864 111.297 209.852C111.459 209.77 111.64 209.767 111.796 209.829C111.83 209.835 111.852 209.846 111.864 209.86C111.969 209.917 112.059 210.006 112.117 210.121C117.466 220.693 126.28 227.135 136.662 229.276C139.357 229.831 143.903 229.913 148.635 229.328L148.919 229.292C155.132 228.489 161.184 227.482 166.503 224.498C181.118 216.66 192.191 200.688 193.634 186.63C194.251 180.621 193.464 174.724 191.371 169.234C191.199 169.355 191.027 169.474 190.857 169.59C190.536 169.809 190.656 169.454 191.217 168.525C191.247 168.404 191.314 168.294 191.41 168.211L191.583 167.937C191.643 167.842 191.707 167.742 191.773 167.639L192.497 167.029C199.316 161.261 204.556 156.35 208.218 152.296L208.636 151.831C215.411 144.249 219.623 137.552 219.692 133.79C219.769 129.663 214.324 129.193 202.113 133.681ZM140.816 210.879C142.454 215.885 139.976 219.105 135.614 219.271C131.584 219.425 127.914 216.885 128.101 213.277C128.263 210.158 130.398 206.824 133.027 205.599C136.207 204.118 139.191 205.915 140.816 210.879ZM133.672 206.983C131.568 207.962 129.758 210.788 129.625 213.356C129.493 215.913 132.32 217.87 135.556 217.746C138.939 217.617 140.676 215.36 139.365 211.354C138 207.182 135.925 205.933 133.672 206.983ZM174.116 200.678C176.206 204.627 175.659 208.507 172.445 210.246L172.355 210.293L172.309 210.34C168 214.607 162.616 215.125 159.106 212.032L158.985 211.923C154.942 208.219 155.905 201.855 162.34 196.866C166.481 193.655 171.539 195.808 174.116 200.678ZM163.141 197.9C157.299 202.429 156.478 207.853 159.869 210.959C162.301 213.187 165.894 213.31 169.249 211.148L169.315 211.104L169.291 211.099C169.058 211.038 168.872 210.85 168.819 210.606L168.809 210.544C168.766 210.185 169.022 209.86 169.381 209.817C170.201 209.72 170.914 209.522 171.517 209.238L171.6 209.198L171.7 209.095C172.094 208.68 172.478 208.229 172.851 207.742L172.975 207.578C173.114 207.39 173.335 207.299 173.552 207.317L173.569 207.319L173.578 207.302C174.361 205.754 174.176 203.655 173.029 201.422L172.96 201.29C170.719 197.055 166.53 195.272 163.141 197.9ZM202.041 150.96C201.704 152.154 200.681 153.793 199.113 155.734C196.379 159.117 192.272 163.055 188.682 165.748L189.479 164.872V164.872C189.471 164.865 189.464 164.856 189.458 164.845L189.183 164.341C187.387 161.062 185.386 157.827 182.151 155.19C173.779 158.642 164.18 163.361 155.434 168.294L152.567 169.915C131.456 181.874 120.349 189.033 108.472 197.834C108.92 199.853 109.485 201.823 110.161 203.732C110.268 204.032 108.881 205.153 108.627 205.014C106.257 206.602 102.547 207.755 100.435 207.815C98.3761 207.873 97.1867 207.04 97.7994 205.378C98.312 203.988 100.243 202.006 103.717 199.349L104.114 199.048L104.914 198.447C117.992 188.656 130.938 180.711 154.834 167.231L155.834 166.67C172.223 157.521 191.203 149.279 199.896 148.519C201.683 148.362 202.493 149.351 202.041 150.96ZM106.882 199.019L104.142 201.086C101.697 202.94 99.9352 204.31 98.9834 205.19L98.9135 205.255C97.7517 206.344 99.0668 206.632 100.4 206.595C102.42 206.537 105.514 205.006 108.133 203.612C107.649 202.113 107.231 200.58 106.882 199.019ZM149.739 192.391C150.066 192.474 150.263 192.806 150.18 193.132C150.097 193.459 149.765 193.657 149.439 193.574C147.797 193.157 146.827 193.317 146.513 193.759C146.304 194.053 146.42 194.552 146.81 194.872C147.115 195.121 147.521 195.24 147.8 195.18C148.043 195.127 148.179 194.939 148.179 194.471C148.179 194.134 148.453 193.86 148.79 193.86C149.127 193.86 149.4 194.134 149.4 194.471C149.4 195.49 148.89 196.192 148.06 196.373C147.393 196.518 146.615 196.289 146.037 195.817C145.184 195.119 144.905 193.913 145.518 193.051C146.19 192.107 147.664 191.864 149.739 192.391ZM122.925 190.15C123.866 190.432 124.271 191.155 124.399 192.239L124.412 192.357L124.428 192.535C124.43 192.565 124.432 192.595 124.434 192.628L124.466 193.248L124.476 193.387C124.48 193.449 124.486 193.499 124.492 193.543L124.509 193.637L124.518 193.678L124.535 193.693C124.724 193.877 124.774 194.167 124.652 194.405L124.621 194.46C124.438 194.743 124.06 194.824 123.777 194.642C123.387 194.39 123.299 194.131 123.251 193.389L123.213 192.662C123.208 192.596 123.203 192.54 123.197 192.475C123.128 191.764 122.954 191.433 122.574 191.319C121.508 191 120.896 191.326 120.702 192.039C120.53 192.674 120.779 193.341 121.217 193.526L121.328 193.568C121.614 193.69 121.765 194.012 121.669 194.314C121.566 194.635 121.223 194.813 120.902 194.71C119.739 194.34 119.187 192.959 119.524 191.718C119.901 190.334 121.21 189.636 122.925 190.15ZM166.965 180.803C168.656 183.179 168.341 186.203 165.629 187.571C165.328 187.723 164.961 187.602 164.809 187.301C164.657 187 164.778 186.633 165.079 186.481C167.043 185.49 167.267 183.333 165.97 181.51C164.711 179.739 162.957 179.544 161.752 181.458C160.474 183.487 160.567 184.678 161.487 185.214C162.217 185.64 163.393 185.55 163.716 185.202L163.748 185.164C163.943 184.889 164.324 184.825 164.599 185.021C164.873 185.216 164.938 185.597 164.742 185.872C164.064 186.825 162.127 187.001 160.872 186.269C159.265 185.332 159.112 183.36 160.719 180.807C162.44 178.075 165.247 178.386 166.965 180.803ZM141.656 177.302C141.974 177.302 142.234 177.544 142.264 177.854L142.267 177.913C142.267 178.02 142.367 178.14 142.725 178.403L143.064 178.646C143.433 178.916 143.612 179.083 143.78 179.349C144.165 179.958 144.383 180.577 144.383 181.306C144.383 183.171 141.58 185.709 138.521 186.838C134.854 188.191 131.849 187.188 131.032 183.425C130.96 183.095 131.169 182.77 131.499 182.699C131.828 182.627 132.153 182.836 132.225 183.165C132.859 186.086 135.05 186.818 138.099 185.693C140.731 184.721 143.162 182.52 143.162 181.306C143.162 180.836 143.019 180.43 142.748 180.002L142.711 179.95C142.649 179.872 142.552 179.787 142.377 179.657L141.974 179.367C141.305 178.873 141.046 178.54 141.046 177.913C141.046 177.576 141.319 177.302 141.656 177.302ZM144.522 143.468L144.136 143.511C123.306 146.016 107.68 162.677 106.828 185.034L109.063 183.461C115.478 178.958 122.924 173.815 131.401 168.03L133.053 167.032C137.985 164.057 142.7 161.257 147.201 158.63C147.119 158.486 147.096 158.309 147.152 158.139C147.466 157.179 147.757 156.533 148.29 155.887C149.958 153.863 152.243 152.875 153.862 154.145C154.021 154.27 154.102 154.459 154.095 154.647L155.533 153.827C160.062 151.249 164.347 148.868 168.391 146.681L166.811 146.231C164.469 145.572 161.554 144.79 158.651 144.188C158.678 146.12 157.232 147.662 154.83 148.723C152.788 149.625 150.126 150.111 148.234 149.998C144.694 149.787 142.702 146.682 144.522 143.468ZM181.062 169.978C182.555 174.059 181.323 177.77 177.593 177.746C172.279 177.711 167.089 173.071 167.928 168.914C168.302 167.06 169.696 165.419 172.121 164.601C175.992 163.293 179.541 165.823 181.062 169.978ZM172.511 165.757C170.508 166.434 169.414 167.72 169.125 169.156C168.459 172.455 172.977 176.495 177.601 176.525C180.25 176.542 181.16 173.8 179.915 170.398C178.597 166.797 175.651 164.697 172.511 165.757ZM127.625 151.306L127.669 151.369L127.962 151.837C128.106 152.074 128.235 152.306 128.358 152.557C129.71 155.322 129.675 158.945 127.387 163.975C126.35 166.254 123.71 169.317 121.404 171.144C118.46 173.477 116.262 174.007 113.638 173.719L112.859 173.628L112.764 173.619C112.712 173.615 112.679 173.615 112.642 173.616L112.589 173.619C112.548 173.621 112.534 173.618 112.532 173.613L112.532 173.609L112.512 173.641C112.335 173.894 111.991 173.978 111.715 173.824C111.42 173.661 111.315 173.289 111.478 172.994C111.698 172.6 112.064 172.421 112.531 172.399C112.655 172.393 112.786 172.397 112.941 172.41L113.123 172.428L113.627 172.489C116.017 172.779 117.918 172.349 120.646 170.187C122.812 168.471 125.329 165.551 126.276 163.47C128.417 158.763 128.448 155.52 127.261 153.094C127.182 152.932 127.1 152.779 127.01 152.624L126.883 152.411L126.627 152.006C126.447 151.721 126.534 151.344 126.819 151.165C127.087 150.997 127.435 151.062 127.625 151.306ZM200.002 149.735C196.1 150.076 189.982 152.004 182.93 154.872L183.136 155.054C185.099 156.815 189.059 160.99 190.298 163.969L191.533 162.6C194.579 159.211 196.789 156.667 198.163 154.967L198.442 154.618C199.755 152.951 200.604 151.558 200.865 150.629L200.902 150.488C201.065 149.817 200.877 149.659 200.002 149.735ZM141.552 151.718C143.071 152.453 143.688 154.088 142.688 155.57C142.5 155.85 142.12 155.924 141.841 155.735C141.561 155.547 141.487 155.167 141.676 154.888C142.226 154.072 141.916 153.25 141.02 152.817C140.078 152.361 139.045 152.623 138.512 153.618C138.021 154.535 137.987 155.776 138.379 156.589C138.724 157.303 139.225 157.439 139.989 156.864C140.258 156.661 140.641 156.715 140.844 156.984C141.047 157.254 140.993 157.637 140.723 157.839C139.33 158.888 137.951 158.512 137.28 157.12C136.717 155.953 136.762 154.3 137.436 153.042C138.296 151.437 140.049 150.992 141.552 151.718ZM149.232 156.663C148.948 157.008 148.744 157.373 148.556 157.84C150.129 156.927 151.675 156.034 153.195 155.162L153.151 155.136V155.136L153.108 155.106C152.176 154.374 150.533 155.085 149.232 156.663ZM146.629 143.281L146.095 143.319L146.059 143.364C143.949 146.031 144.762 148.195 147.644 148.503C149.713 148.723 155.208 147.188 155.852 146.649C156.48 146.124 157.274 144.917 157.396 143.939C155.531 143.588 153.707 143.331 152.08 143.247C150.418 143.162 148.778 143.164 147.165 143.25L146.629 143.281Z" fill="#f8f8f8"/>
<path fill-rule="evenodd" clip-rule="evenodd" d="M224.066 110.18C220.06 109.975 216.933 113.089 216.9 117.162C216.873 120.574 218.831 123.472 221.636 124.051C222.375 124.203 224.507 124.203 226.356 123.166L226.509 123.081C228.841 121.761 230.427 119.25 230.639 117.184C231.015 113.521 228.072 110.385 224.066 110.18ZM217.772 117.169C217.773 117.142 217.773 117.116 217.773 117.09C217.798 117.082 217.823 117.072 217.847 117.059C220.988 115.367 222.927 114.077 223.701 113.146C224.212 112.532 224.461 111.838 224.441 111.085C224.969 111.143 225.471 111.259 225.942 111.425C225.94 111.447 225.939 111.47 225.94 111.494C225.978 112.578 225.689 113.445 225.074 114.119C224.368 114.895 223.513 115.633 222.54 116.329C221.501 117.073 220.384 117.73 219.268 118.292C219.007 118.424 218.759 118.543 218.527 118.651L218.19 118.804C218.141 118.825 218.096 118.845 218.055 118.863L217.955 118.905C217.831 118.355 217.768 117.773 217.772 117.169ZM218.2 119.748C218.476 120.514 218.876 121.192 219.371 121.745L219.632 121.595C223.731 119.222 226.275 117.358 227.238 116.043C228.212 114.713 228.559 113.692 228.341 112.998C228.336 112.982 228.332 112.965 228.329 112.949C227.9 112.499 227.389 112.111 226.814 111.806C226.789 112.958 226.425 113.932 225.719 114.707C224.968 115.531 224.067 116.308 223.048 117.038C221.968 117.811 220.814 118.49 219.66 119.071C219.323 119.241 219.006 119.392 218.715 119.524L218.375 119.675L218.2 119.748ZM221.464 123.109C220.949 122.955 220.47 122.702 220.038 122.368C224.257 119.927 226.883 118.004 227.942 116.558C228.599 115.661 229.019 114.854 229.189 114.135C229.401 114.531 229.562 114.953 229.665 115.395C229.643 115.44 229.629 115.489 229.623 115.542C229.517 116.562 228.991 117.573 228.031 118.581C227.109 119.548 225.119 120.943 222.078 122.747L221.464 123.109ZM222.938 123.25C223.874 123.19 225.019 122.916 225.944 122.397C227.665 121.474 229.046 119.737 229.568 118.063C229.315 118.441 229.013 118.814 228.662 119.183C227.715 120.176 225.812 121.526 222.938 123.25ZM218.026 115.968L217.871 116.053C218.366 113.172 220.668 111.104 223.567 111.044C223.598 111.61 223.422 112.118 223.03 112.589C222.398 113.349 220.72 114.488 218.026 115.968Z" fill="#f8f8f8"/>
<path fill-rule="evenodd" clip-rule="evenodd" d="M255.544 101.825C255.625 101.834 255.682 101.908 255.673 101.989C255.672 102.108 255.596 102.172 255.493 102.214C255.4 102.251 255.252 102.237 255.165 102.248C254.221 102.321 253.479 101.627 253.153 100.731C252.839 99.8707 252.922 98.842 253.492 98.2076C253.557 98.1328 253.671 98.1253 253.746 98.1909C253.82 98.2564 254.245 98.3703 254.18 98.4451C253.71 98.9931 253.392 99.3256 253.835 100.626C254.278 101.927 255.483 101.818 255.544 101.825Z" fill="#E7EAEE"/>
<path fill-rule="evenodd" clip-rule="evenodd" d="M105.197 111.138C104.949 110.968 104.61 111.031 104.439 111.279C104.269 111.527 104.332 111.867 104.58 112.037C104.853 112.224 105.094 112.397 105.306 112.558C105.077 112.74 104.849 112.949 104.611 113.186L104.129 113.676C103.917 113.89 103.919 114.235 104.132 114.447C104.346 114.658 104.691 114.657 104.903 114.443L105.481 113.859C105.717 113.629 105.937 113.438 106.159 113.278C106.652 113.767 106.802 114.125 106.81 114.481L106.81 114.573L106.813 114.628C106.841 114.903 107.073 115.118 107.355 115.118C107.656 115.118 107.9 114.874 107.9 114.573L107.9 114.465C107.89 113.91 107.694 113.382 107.166 112.779C107.515 112.675 107.908 112.617 108.384 112.592C108.684 112.576 108.915 112.32 108.9 112.019C108.884 111.719 108.627 111.488 108.327 111.503C107.5 111.547 106.858 111.684 106.285 111.946C106.047 111.751 105.776 111.546 105.47 111.329L105.197 111.138Z" fill="#f8f8f8"/>
<path fill-rule="evenodd" clip-rule="evenodd" d="M186.864 230.566L187.242 230.568C189.355 230.588 191.006 230.778 194.116 231.277C194.473 231.335 194.716 231.67 194.658 232.027C194.601 232.384 194.266 232.626 193.909 232.569L192.89 232.409C190.316 232.014 188.834 231.874 186.864 231.874C180.029 231.874 175.665 236.153 176.404 242.715C176.444 243.074 176.186 243.398 175.827 243.438C175.468 243.479 175.144 243.221 175.104 242.862C174.273 235.481 179.286 230.566 186.864 230.566ZM192.157 233.207L192.094 233.151C192.032 233.098 191.937 233.106 191.885 233.168C191.832 233.23 191.84 233.323 191.901 233.376L191.967 233.432C192.029 233.485 192.121 233.477 192.175 233.415C192.227 233.354 192.221 233.26 192.157 233.207ZM180.306 234.575C180.071 234.387 179.728 234.424 179.539 234.658C178.778 235.606 178.223 236.529 177.877 237.43C177.54 238.307 177.425 239.779 177.513 241.885L177.534 242.33C177.55 242.63 177.806 242.861 178.107 242.845C178.407 242.829 178.638 242.573 178.622 242.272C178.507 240.072 178.605 238.574 178.894 237.821C179.197 237.033 179.695 236.205 180.389 235.341C180.578 235.107 180.54 234.764 180.306 234.575ZM186.254 232.772C186.521 232.633 186.85 232.738 186.988 233.005C187.127 233.272 187.022 233.601 186.755 233.74C185.648 234.313 184.803 235.274 184.213 236.645C183.581 238.116 183.064 239.429 182.661 240.582C182.562 240.866 182.251 241.016 181.967 240.917C181.683 240.818 181.533 240.507 181.632 240.223C182.043 239.044 182.57 237.708 183.212 236.215C183.897 234.621 184.913 233.467 186.254 232.772ZM189.422 232.743C189.224 232.517 188.88 232.494 188.653 232.692C187.744 233.489 187.045 234.214 186.555 234.872C186.07 235.525 185.501 236.501 184.843 237.807C184.707 238.076 184.815 238.403 185.084 238.539C185.353 238.674 185.681 238.566 185.816 238.297C186.448 237.043 186.989 236.116 187.43 235.523C187.868 234.934 188.515 234.263 189.372 233.512C189.598 233.314 189.621 232.97 189.422 232.743ZM187.432 238.898C187.206 239.097 186.862 239.074 186.663 238.847C186.465 238.621 186.488 238.277 186.714 238.078C187.57 237.328 188.218 236.656 188.656 236.068C189.097 235.475 189.637 234.548 190.27 233.293C190.405 233.024 190.733 232.916 191.002 233.052C191.271 233.187 191.379 233.515 191.243 233.784C190.585 235.09 190.016 236.066 189.53 236.719C189.041 237.376 188.342 238.101 187.432 238.898ZM183.306 233.216C183.058 233.045 182.719 233.107 182.548 233.355C181.329 235.12 180.551 236.438 180.207 237.334C179.862 238.232 179.623 239.444 179.485 240.975C179.458 241.275 179.679 241.54 179.979 241.567C180.278 241.594 180.543 241.373 180.571 241.073C180.701 239.634 180.921 238.515 181.225 237.725C181.508 236.987 182.168 235.85 183.2 234.332L183.445 233.974C183.616 233.727 183.554 233.387 183.306 233.216Z" fill="#f8f8f8"/>
<path fill-rule="evenodd" clip-rule="evenodd" d="M172.959 230.002L173.335 230.837L174.191 231.082C174.237 231.096 174.264 231.144 174.251 231.19C174.247 231.205 174.239 231.218 174.229 231.228L173.578 231.876L173.615 232.808C173.616 232.856 173.579 232.896 173.531 232.898C173.515 232.899 173.498 232.895 173.484 232.887L172.748 232.467C172.725 232.454 172.697 232.452 172.673 232.462L171.885 232.775C171.84 232.793 171.789 232.771 171.772 232.726C171.766 232.711 171.764 232.694 171.767 232.678L171.933 231.761L171.379 231.029C171.35 230.99 171.357 230.936 171.396 230.907C171.407 230.898 171.421 230.892 171.436 230.89L172.318 230.766L172.806 229.991C172.832 229.951 172.886 229.938 172.926 229.964C172.941 229.973 172.952 229.986 172.959 230.002Z" fill="#f8f8f8"/>
<path fill-rule="evenodd" clip-rule="evenodd" d="M203.287 113.155C203.488 113.333 203.738 113.653 203.959 114.001L204.244 113.874L204.58 113.73C204.648 113.699 204.691 113.675 204.705 113.655C204.743 113.583 204.833 113.556 204.906 113.594C204.977 113.632 205.005 113.722 204.967 113.794C204.94 113.862 204.751 114.077 204.4 114.287C204.337 114.325 204.266 114.36 204.191 114.395C204.32 114.637 204.422 114.871 204.47 115.058C204.542 115.335 204.484 115.531 204.389 115.6C204.296 115.668 204.063 115.68 203.708 115.385C203.642 115.336 203.632 115.243 203.682 115.178C203.731 115.114 203.824 115.102 203.889 115.152C203.957 115.201 204.025 115.23 204.08 115.25L204.053 115.144C204.043 115.106 204.03 115.067 204.012 115.028C203.948 114.889 203.867 114.73 203.776 114.567C203.499 114.672 203.183 114.767 202.841 114.813C202.675 114.835 202.505 114.84 202.329 114.838C202.228 114.845 202.14 114.768 202.133 114.666C202.126 114.565 202.204 114.477 202.305 114.471C202.715 114.431 203.095 114.327 203.43 114.211L203.54 114.171C203.359 113.888 203.165 113.63 202.998 113.485C202.908 113.405 202.899 113.266 202.978 113.175C203.059 113.084 203.197 113.075 203.287 113.155Z" fill="#f8f8f8"/>
<path fill-rule="evenodd" clip-rule="evenodd" d="M81.6871 191.224C81.5912 190.651 81.6566 190.008 81.945 189.323C82.0758 189.012 82.4197 188.759 82.8499 188.589C83.3529 188.391 83.9681 188.292 84.3561 188.267C85.3012 188.206 85.8724 188.602 86.1636 189.216C86.4342 189.421 86.5366 189.748 86.5166 190.136C86.508 190.32 86.7509 190.987 86.7593 191.114C86.9492 193.584 85.3502 194.226 83.8883 193.742C83.3328 194.024 82.7971 194.071 82.3939 193.771C82.0322 193.504 81.7546 192.939 81.691 191.944C81.6741 191.687 81.6728 191.447 81.6871 191.224ZM84.2801 189.598C83.4413 189.763 83.4062 192.184 84.1387 192.7C84.2386 192.77 84.336 192.832 84.4305 192.882C84.7846 192.563 85.0486 192.305 85.1984 191.777C85.3482 191.249 84.8003 189.975 84.2801 189.598Z" fill="#F1BBC5"/>
<path fill-rule="evenodd" clip-rule="evenodd" d="M138.929 251.7C138.681 251.529 138.342 251.592 138.171 251.841C138.001 252.089 138.064 252.428 138.312 252.598C138.585 252.786 138.826 252.958 139.038 253.119C138.809 253.301 138.581 253.51 138.343 253.748L137.861 254.237C137.649 254.451 137.651 254.796 137.864 255.008C138.078 255.22 138.423 255.218 138.635 255.005L139.213 254.42C139.449 254.191 139.669 253.999 139.891 253.84C140.384 254.328 140.534 254.687 140.542 255.043L140.542 255.134L140.545 255.19C140.573 255.465 140.805 255.679 141.087 255.679C141.388 255.679 141.632 255.435 141.632 255.134L141.632 255.027C141.622 254.472 141.426 253.944 140.899 253.34C141.247 253.236 141.64 253.178 142.116 253.153C142.416 253.138 142.647 252.881 142.632 252.581C142.616 252.28 142.359 252.049 142.059 252.065C141.232 252.108 140.59 252.246 140.018 252.507C139.779 252.312 139.508 252.107 139.202 251.89L138.929 251.7Z" fill="#f8f8f8"/>
<path fill-rule="evenodd" clip-rule="evenodd" d="M138.929 251.7C138.681 251.529 138.342 251.592 138.171 251.841C138.001 252.089 138.064 252.428 138.312 252.598C138.585 252.786 138.826 252.958 139.038 253.119C138.809 253.301 138.581 253.51 138.343 253.748L137.861 254.237C137.649 254.451 137.651 254.796 137.864 255.008C138.078 255.22 138.423 255.218 138.635 255.005L139.213 254.42C139.449 254.191 139.669 253.999 139.891 253.84C140.384 254.328 140.534 254.687 140.542 255.043L140.542 255.134L140.545 255.19C140.573 255.465 140.805 255.679 141.087 255.679C141.388 255.679 141.632 255.435 141.632 255.134L141.632 255.027C141.622 254.472 141.426 253.944 140.899 253.34C141.247 253.236 141.64 253.178 142.116 253.153C142.416 253.138 142.647 252.881 142.632 252.581C142.616 252.28 142.359 252.049 142.059 252.065C141.232 252.108 140.59 252.246 140.018 252.507C139.779 252.312 139.508 252.107 139.202 251.89L138.929 251.7Z" fill="#f8f8f8"/>
<path fill-rule="evenodd" clip-rule="evenodd" d="M157.556 236.768L157.932 237.603L158.788 237.849C158.835 237.862 158.861 237.91 158.848 237.957C158.844 237.971 158.836 237.984 158.826 237.994L158.175 238.642L158.212 239.574C158.214 239.622 158.176 239.662 158.128 239.664C158.112 239.665 158.095 239.661 158.081 239.653L157.345 239.234C157.322 239.22 157.294 239.219 157.27 239.228L156.482 239.541C156.437 239.559 156.386 239.537 156.369 239.492C156.363 239.477 156.361 239.461 156.364 239.445L156.53 238.527L155.976 237.795C155.947 237.757 155.954 237.702 155.993 237.673C156.004 237.664 156.018 237.658 156.033 237.656L156.915 237.532L157.403 236.758C157.429 236.717 157.483 236.705 157.523 236.73C157.538 236.739 157.549 236.753 157.556 236.768Z" fill="#f8f8f8"/>
<path fill-rule="evenodd" clip-rule="evenodd" d="M110.306 231.033L110.944 231.689L111.833 231.627C111.881 231.624 111.923 231.66 111.926 231.708C111.927 231.723 111.924 231.738 111.918 231.751L111.528 232.582L111.881 233.446C111.899 233.49 111.878 233.541 111.833 233.559C111.818 233.566 111.802 233.567 111.786 233.565L110.95 233.422C110.924 233.418 110.898 233.426 110.878 233.443L110.245 234.007C110.209 234.039 110.154 234.035 110.122 233.999C110.111 233.987 110.104 233.972 110.101 233.956L109.943 233.037L109.172 232.539C109.131 232.513 109.12 232.459 109.146 232.418C109.154 232.406 109.165 232.396 109.178 232.389L109.964 231.97L110.158 231.076C110.169 231.029 110.215 230.999 110.262 231.009C110.279 231.013 110.294 231.021 110.306 231.033Z" fill="#f8f8f8"/>
<path fill-rule="evenodd" clip-rule="evenodd" d="M100.337 171.265L100.713 172.1L101.569 172.345C101.615 172.359 101.642 172.407 101.629 172.453C101.625 172.467 101.617 172.48 101.606 172.491L100.956 173.138L100.992 174.07C100.994 174.119 100.957 174.159 100.909 174.161C100.892 174.162 100.876 174.158 100.862 174.15L100.126 173.73C100.103 173.717 100.075 173.715 100.05 173.725L99.2626 174.038C99.2178 174.055 99.1671 174.034 99.1493 173.989C99.1433 173.974 99.1417 173.957 99.1446 173.941L99.3104 173.023L98.7563 172.292C98.7273 172.253 98.7348 172.198 98.7732 172.169C98.7851 172.16 98.799 172.155 98.8137 172.153L99.6957 172.028L100.184 171.254C100.209 171.213 100.263 171.201 100.304 171.227C100.319 171.236 100.33 171.249 100.337 171.265Z" fill="#f8f8f8"/>
<path fill-rule="evenodd" clip-rule="evenodd" d="M100.25 172.096L100.409 172.451L100.773 172.555C100.793 172.561 100.804 172.581 100.798 172.601C100.797 172.607 100.793 172.612 100.789 172.617L100.513 172.892L100.528 173.288C100.529 173.308 100.513 173.325 100.493 173.326C100.486 173.327 100.479 173.325 100.473 173.321L100.16 173.143C100.15 173.138 100.138 173.137 100.128 173.141L99.7935 173.274C99.7745 173.282 99.7529 173.272 99.7454 173.253C99.7428 173.247 99.7421 173.24 99.7433 173.233L99.8138 172.843L99.5784 172.532C99.5661 172.516 99.5693 172.493 99.5856 172.48C99.5906 172.477 99.5966 172.474 99.6028 172.473L99.9775 172.42L100.185 172.092C100.196 172.074 100.219 172.069 100.236 172.08C100.242 172.084 100.247 172.09 100.25 172.096Z" fill="#E7EAEE"/>
<path fill-rule="evenodd" clip-rule="evenodd" d="M55.6887 207.883L56.0642 208.718L56.9204 208.964C56.9667 208.977 56.9935 209.025 56.9802 209.072C56.9761 209.086 56.9684 209.099 56.9579 209.109L56.3074 209.757L56.3438 210.689C56.3457 210.737 56.3082 210.778 56.2601 210.779C56.2438 210.78 56.2277 210.776 56.2135 210.768L55.4771 210.349C55.4541 210.336 55.4264 210.334 55.4018 210.343L54.6141 210.656C54.5694 210.674 54.5187 210.652 54.5009 210.607C54.4949 210.592 54.4932 210.576 54.4961 210.56L54.6619 209.642L54.1079 208.91C54.0788 208.872 54.0864 208.817 54.1248 208.788C54.1366 208.779 54.1506 208.773 54.1653 208.771L55.0473 208.647L55.5354 207.873C55.5611 207.832 55.6149 207.82 55.6556 207.845C55.6701 207.855 55.6816 207.868 55.6887 207.883Z" fill="#f8f8f8"/>
<path fill-rule="evenodd" clip-rule="evenodd" d="M93.4246 132.939L93.6974 133.13C94.0036 133.347 95.1466 134.424 95.3856 134.62C95.9571 134.357 96.5995 134.22 97.4263 134.176C97.7269 134.161 97.9833 134.392 97.999 134.692C98.0147 134.993 97.7837 135.249 97.4831 135.265C97.0068 135.29 96.6141 135.348 96.2656 135.452C96.7936 136.056 96.9894 136.583 96.9995 137.139L96.9996 137.246C96.9996 137.547 96.7556 137.791 96.4546 137.791C96.1724 137.791 95.9403 137.576 95.9124 137.301L95.9096 137.246L95.9096 137.154C95.9015 136.798 95.7515 136.44 95.2587 135.952C95.0368 136.111 94.8162 136.302 94.5808 136.532L94.0025 137.116C93.7906 137.33 93.4455 137.332 93.2318 137.12C93.018 136.908 93.0165 136.563 93.2284 136.349L93.7104 135.859C93.948 135.622 94.1767 135.413 94.4057 135.231C94.0036 134.313 92.4964 133.328 92.6668 133.08C92.8372 132.832 93.1765 132.769 93.4246 132.939Z" fill="#f8f8f8"/>
<path fill-rule="evenodd" clip-rule="evenodd" d="M198.582 195.797L199.325 196.332L200.189 196.116C200.236 196.105 200.283 196.133 200.295 196.18C200.298 196.194 200.298 196.209 200.294 196.224L200.055 197.11L200.552 197.899C200.578 197.939 200.566 197.993 200.525 198.019C200.511 198.028 200.495 198.032 200.479 198.032L199.632 198.037C199.605 198.038 199.58 198.05 199.564 198.071L199.038 198.735C199.008 198.773 198.953 198.779 198.916 198.75C198.903 198.739 198.893 198.726 198.888 198.711L198.572 197.833L197.727 197.476C197.682 197.457 197.661 197.406 197.68 197.362C197.686 197.348 197.695 197.336 197.707 197.327L198.409 196.779L198.444 195.864C198.446 195.816 198.486 195.778 198.535 195.78C198.552 195.781 198.568 195.787 198.582 195.797Z" fill="#f8f8f8"/>
<path fill-rule="evenodd" clip-rule="evenodd" d="M207.112 161.638L207.337 162.525L208.138 162.916C208.181 162.937 208.199 162.989 208.178 163.032C208.171 163.046 208.161 163.057 208.149 163.066L207.396 163.59L207.27 164.514C207.264 164.562 207.22 164.596 207.172 164.589C207.156 164.587 207.141 164.58 207.128 164.57L206.476 164.029C206.455 164.012 206.428 164.005 206.402 164.011L205.572 164.182C205.525 164.192 205.479 164.161 205.469 164.114C205.466 164.098 205.467 164.082 205.473 164.066L205.796 163.191L205.377 162.374C205.355 162.332 205.372 162.279 205.415 162.257C205.428 162.25 205.443 162.247 205.458 162.247L206.348 162.278L206.963 161.601C206.995 161.565 207.05 161.562 207.086 161.595C207.099 161.606 207.108 161.621 207.112 161.638Z" fill="#f8f8f8"/>
<path fill-rule="evenodd" clip-rule="evenodd" d="M187.687 125.933L187.912 126.82L188.713 127.211C188.756 127.232 188.774 127.284 188.753 127.328C188.746 127.341 188.737 127.352 188.724 127.361L187.971 127.886L187.845 128.81C187.839 128.858 187.795 128.891 187.747 128.884C187.731 128.882 187.716 128.876 187.703 128.865L187.051 128.324C187.03 128.307 187.004 128.301 186.978 128.306L186.148 128.477C186.1 128.487 186.054 128.457 186.045 128.41C186.041 128.394 186.043 128.377 186.048 128.362L186.371 127.487L185.952 126.67C185.93 126.627 185.947 126.574 185.99 126.552C186.003 126.546 186.018 126.542 186.033 126.543L186.923 126.574L187.538 125.896C187.571 125.86 187.626 125.858 187.661 125.89C187.674 125.902 187.683 125.917 187.687 125.933Z" fill="#f8f8f8"/>
<path fill-rule="evenodd" clip-rule="evenodd" d="M245.073 134.626L245.404 134.596C245.779 134.566 246.118 134.549 246.427 134.545C246.696 133.977 247.1 133.458 247.705 132.894C247.925 132.688 248.27 132.701 248.475 132.921C248.681 133.141 248.669 133.486 248.448 133.691C248.099 134.016 247.836 134.313 247.636 134.617C248.428 134.74 248.918 135.018 249.282 135.437L249.351 135.519C249.545 135.75 249.515 136.093 249.284 136.287C249.068 136.468 248.752 136.453 248.554 136.261L248.516 136.22L248.457 136.15C248.222 135.882 247.877 135.704 247.186 135.647C247.118 135.911 247.072 136.2 247.039 136.527L246.972 137.346C246.947 137.646 246.684 137.869 246.384 137.844C246.084 137.82 245.861 137.556 245.886 137.256L245.94 136.571C245.97 136.237 246.011 135.93 246.069 135.643C245.803 135.656 245.507 135.679 245.178 135.711C244.879 135.74 244.612 135.52 244.583 135.221C244.554 134.921 244.774 134.655 245.073 134.626Z" fill="#f8f8f8"/>
<path fill-rule="evenodd" clip-rule="evenodd" d="M201.062 172.249C200.964 172.498 200.748 172.843 200.497 173.17L200.713 173.394L200.964 173.66L201.019 173.714C201.044 173.735 201.063 173.749 201.076 173.752C201.158 173.764 201.214 173.838 201.203 173.92C201.191 174 201.117 174.057 201.036 174.046C200.963 174.044 200.696 173.94 200.379 173.682C200.321 173.635 200.264 173.581 200.206 173.522C200.023 173.727 199.838 173.902 199.678 174.011C199.443 174.174 199.239 174.186 199.142 174.121C199.046 174.057 198.954 173.842 199.11 173.407C199.134 173.329 199.218 173.287 199.296 173.312C199.373 173.336 199.416 173.419 199.392 173.498C199.368 173.578 199.365 173.652 199.364 173.711L199.455 173.649C199.487 173.627 199.519 173.601 199.549 173.571C199.658 173.463 199.78 173.333 199.902 173.192C199.709 172.966 199.511 172.702 199.351 172.397C199.273 172.248 199.211 172.09 199.152 171.924C199.112 171.831 199.154 171.722 199.247 171.681C199.34 171.641 199.449 171.683 199.489 171.776C199.667 172.148 199.895 172.469 200.119 172.744L200.194 172.834C200.398 172.567 200.573 172.296 200.653 172.09C200.697 171.978 200.825 171.922 200.937 171.965C201.051 172.01 201.106 172.137 201.062 172.249Z" fill="#E7EAEE"/>
<path fill-rule="evenodd" clip-rule="evenodd" d="M195.741 61.1711C196.073 61.1132 196.389 61.3356 196.447 61.6677C196.505 61.9999 196.282 62.316 195.95 62.3738C194.371 62.649 192.469 63.5932 190.827 65.114C188.694 67.0888 187.121 69.8759 186.345 73.5141C185.719 76.4453 186.294 80.3046 187.929 83.5244C189.79 87.1876 192.781 89.6782 196.62 90.3792C200.56 91.0989 203.894 90.652 207.617 89.3283L207.96 89.2038C208.068 89.1627 208.262 89.0879 208.505 88.994L208.506 88.9937L208.507 88.9936L208.507 88.9935L208.507 88.9934C209.404 88.6474 210.97 88.0432 211.42 87.9072C212.623 87.5431 213.445 87.5736 214.04 88.2081C214.271 88.4539 214.258 88.8402 214.013 89.0709C213.782 89.2872 213.428 89.2899 213.195 89.0869L213.15 89.0435C212.974 88.8563 212.611 88.8347 211.88 89.0442L211.773 89.0758C211.377 89.1956 209.927 89.7546 209.022 90.1035L209.022 90.1037L209.021 90.1039L209.021 90.104L209.021 90.1041L209.018 90.105C208.669 90.2397 208.402 90.3428 208.309 90.3767C204.287 91.8447 200.678 92.3616 196.4 91.5802C192.161 90.8059 188.865 88.0614 186.841 84.0773C185.082 80.6148 184.465 76.4718 185.151 73.2592C185.979 69.3763 187.679 66.3649 189.998 64.2182C191.812 62.5378 193.929 61.4867 195.741 61.1711ZM199.869 64.1201C200.2 64.0553 200.521 64.271 200.586 64.6018C200.65 64.9327 200.435 65.2534 200.104 65.3182C195.156 66.2871 191.178 70.066 190.024 75.0645C189.633 76.7561 189.751 78.1316 190.134 78.6564L190.185 78.7222L190.189 78.7313L190.196 78.7258C190.334 78.602 190.494 78.2856 190.618 77.7951L190.645 77.6873C191.831 72.5466 195.751 68.5673 200.757 67.2309C201.082 67.144 201.417 67.3376 201.504 67.6633C201.591 67.989 201.397 68.3235 201.072 68.4105C196.561 69.6145 193.018 73.1653 191.881 77.7669L191.834 77.962C191.416 79.775 190.214 80.6405 189.24 79.4929C188.528 78.6534 188.353 76.8722 188.834 74.7898C190.097 69.3179 194.453 65.1808 199.869 64.1201ZM207.211 70.8202C207.187 70.484 206.895 70.2308 206.558 70.2548C200.617 70.6787 195.407 74.5375 193.334 80.233C192.547 82.3942 192.5 84.3161 193.145 85.2962C194.008 86.6109 195.367 85.8651 196.045 84.0036L196.116 83.8126C197.949 78.9926 202.245 75.6262 207.274 74.9242C207.608 74.8776 207.841 74.5691 207.794 74.2352C207.748 73.9013 207.439 73.6684 207.105 73.715C201.567 74.4881 196.845 78.2353 194.898 83.5861L194.855 83.7004C194.638 84.2573 194.401 84.5931 194.221 84.6916L194.213 84.697L194.21 84.6998C194.209 84.7011 194.208 84.7018 194.207 84.7017C194.206 84.7016 194.205 84.6999 194.204 84.6958C194.2 84.6868 194.191 84.6662 194.165 84.6258L194.133 84.5727C193.778 83.9445 193.832 82.4334 194.481 80.6505C196.388 75.4117 201.18 71.8625 206.645 71.4726C206.982 71.4486 207.235 71.1565 207.211 70.8202ZM209.869 76.7545C210.206 76.7305 210.498 76.9836 210.522 77.3199C210.546 77.6562 210.293 77.9482 209.956 77.9722C206.124 78.2456 202.765 80.734 201.428 84.4071C201.031 85.4959 200.958 86.4268 201.1 86.8983L201.117 86.9509L201.144 86.912C201.212 86.8086 201.289 86.6601 201.364 86.4675L201.396 86.3823C202.808 82.5026 206.232 79.7855 210.248 79.2249C210.582 79.1783 210.89 79.4112 210.937 79.7451C210.983 80.079 210.751 80.3875 210.417 80.4341C206.904 80.9244 203.901 83.2689 202.608 86.6282L202.543 86.7999C202.02 88.2386 200.887 88.8601 200.163 87.7585C199.667 87.0035 199.702 85.5784 200.28 83.9895C201.784 79.8598 205.562 77.0618 209.869 76.7545ZM213.087 81.6728C213.063 81.3365 212.771 81.0833 212.434 81.1073C209.549 81.3131 207.019 83.187 206.012 85.9527C205.616 87.0431 205.591 88.0354 205.959 88.5942C206.561 89.5103 207.496 88.997 207.885 87.9265L207.938 87.786C208.758 85.6916 210.638 84.2314 212.835 83.9247C213.169 83.8781 213.402 83.5696 213.355 83.2357C213.308 82.9019 213 82.669 212.666 82.7156L212.511 82.7388C210.146 83.1198 208.105 84.6211 207.047 86.7816L207.01 86.8585L207.033 86.7709C207.067 86.6434 207.109 86.5093 207.16 86.3703C208 84.0612 210.112 82.4969 212.521 82.3251C212.857 82.3011 213.111 82.009 213.087 81.6728Z" fill="#f8f8f8"/>
<path fill-rule="evenodd" clip-rule="evenodd" d="M209.869 76.7545C210.206 76.7305 210.498 76.9836 210.522 77.3199C210.546 77.6562 210.292 77.9482 209.956 77.9722C206.124 78.2456 202.765 80.734 201.428 84.4071C201.031 85.4959 200.958 86.4268 201.099 86.8983L201.117 86.9509L201.144 86.912C201.212 86.8086 201.289 86.6601 201.364 86.4675L201.396 86.3823C202.808 82.5026 206.232 79.7855 210.248 79.2249C210.582 79.1783 210.89 79.4112 210.937 79.7451C210.983 80.079 210.75 80.3875 210.417 80.4341C206.904 80.9244 203.901 83.2689 202.608 86.6282L202.543 86.7999C202.02 88.2386 200.887 88.8601 200.163 87.7585C199.667 87.0035 199.702 85.5784 200.28 83.9895C201.783 79.8598 205.561 77.0618 209.869 76.7545Z" fill="#f8f8f8"/>
<path fill-rule="evenodd" clip-rule="evenodd" d="M129.501 131.298C129.902 130.807 130.421 130.881 131.079 131.28L131.248 131.386L131.721 131.7C131.853 131.784 131.91 131.814 131.987 131.844C132.166 131.916 132.254 132.119 132.182 132.298C132.111 132.476 131.908 132.564 131.729 132.493L131.666 132.466C131.545 132.415 131.453 132.361 131.208 132.198L130.869 131.972C130.813 131.936 130.765 131.905 130.717 131.876C130.324 131.637 130.145 131.612 130.041 131.739C129.976 131.819 129.992 131.99 130.122 132.339L130.264 132.706C130.547 133.457 130.549 133.792 130.045 134.079C129.611 134.326 129.388 134.21 128.765 133.6L128.614 133.45C128.215 133.052 128.006 132.913 127.871 132.941C127.826 132.951 127.774 132.983 127.71 133.051C127.636 133.13 127.614 133.385 127.66 133.837L127.731 134.428C127.813 135.149 127.78 135.336 127.482 135.536C127.071 135.81 126.525 135.5 125.513 134.591C125.37 134.463 125.358 134.242 125.487 134.099C125.616 133.955 125.836 133.944 125.98 134.072C126.412 134.461 126.739 134.714 126.967 134.843L127.018 134.871L127.061 134.893L127.062 134.849L127.059 134.744C127.055 134.659 127.044 134.555 127.023 134.379L126.978 134.017C126.893 133.282 126.92 132.874 127.202 132.573C127.358 132.406 127.534 132.3 127.727 132.259C128.175 132.164 128.493 132.356 129.022 132.872L129.289 133.135C129.576 133.411 129.683 133.482 129.7 133.473C129.765 133.435 129.755 133.32 129.578 132.866L129.501 132.67C129.255 132.036 129.208 131.657 129.501 131.298Z" fill="#f8f8f8"/>
<path fill-rule="evenodd" clip-rule="evenodd" d="M167.582 74.5219L167.25 74.5515C166.951 74.5805 166.731 74.8469 166.76 75.1465C166.778 75.3276 166.882 75.4794 167.028 75.5647L166.971 75.6057C166.725 75.7794 166.666 76.1195 166.84 76.3653C167.014 76.6111 167.354 76.6696 167.6 76.4958L168.16 76.0992C168.143 76.2275 168.13 76.3599 168.118 76.497L168.063 77.1819C168.038 77.4818 168.261 77.7452 168.561 77.7701C168.861 77.795 169.124 77.5721 169.149 77.2721L169.217 76.4526C169.234 76.2772 169.256 76.1128 169.282 75.9572C169.473 76.3203 169.512 76.6 169.471 76.8645L169.455 76.9545L169.448 77.0099C169.428 77.2854 169.62 77.5369 169.897 77.5859C170.194 77.6382 170.477 77.4402 170.529 77.1438L170.547 77.0382C170.605 76.6704 170.579 76.3001 170.43 75.8891C170.508 75.9451 170.575 76.0074 170.635 76.0755L170.693 76.1454L170.731 76.1863C170.929 76.3789 171.245 76.394 171.461 76.2126C171.692 76.0191 171.722 75.6754 171.528 75.4448L171.459 75.3627C171.435 75.3346 171.41 75.3072 171.384 75.2803C171.669 75.2969 171.921 75.0896 171.956 74.8027C171.993 74.5039 171.781 74.2319 171.482 74.1952C170.968 74.132 170.519 74.1178 170.105 74.1549C170.254 73.9804 170.426 73.8032 170.626 73.6167C170.846 73.4114 170.858 73.0665 170.653 72.8464C170.447 72.6262 170.102 72.6141 169.882 72.8193C169.513 73.1636 169.219 73.4909 168.984 73.8227C168.894 73.7267 168.799 73.6282 168.699 73.5272L168.463 73.2924C168.248 73.0815 167.903 73.0847 167.693 73.2995C167.482 73.5143 167.485 73.8594 167.7 74.0702C167.849 74.2167 167.986 74.3552 168.113 74.4865C167.944 74.4951 167.767 74.5068 167.582 74.5219Z" fill="#f8f8f8"/>
<path fill-rule="evenodd" clip-rule="evenodd" d="M146.577 78.2983C146.446 78.1642 146.235 78.1679 146.104 78.3067C145.974 78.4454 145.974 78.6666 146.105 78.8008C146.229 78.928 146.34 79.0459 146.439 79.1556C146.229 79.2445 146.019 79.3596 145.793 79.5016L145.452 79.7209C145.302 79.8165 145.269 80.0077 145.378 80.1481C145.488 80.2884 145.699 80.3246 145.849 80.229L146.258 79.9675C146.473 79.8365 146.665 79.7373 146.859 79.6676C147.154 80.0774 147.216 80.34 147.178 80.5835L147.168 80.6412L147.163 80.6768C147.15 80.8535 147.266 81.0138 147.436 81.0438C147.618 81.0759 147.792 80.9476 147.826 80.7573L147.838 80.6895C147.894 80.3363 147.834 79.9805 147.581 79.541C147.753 79.5384 147.94 79.5511 148.152 79.5782C148.337 79.6018 148.503 79.4847 148.522 79.3166C148.542 79.1484 148.408 78.993 148.223 78.9693C147.818 78.9175 147.479 78.9116 147.168 78.9536C147.04 78.7963 146.892 78.6284 146.721 78.4477L146.577 78.2983Z" fill="#E7EAEE"/>
<path fill-rule="evenodd" clip-rule="evenodd" d="M76.3395 169.16L76.7151 169.995L77.5713 170.241C77.6176 170.254 77.6443 170.302 77.6311 170.349C77.627 170.363 77.6193 170.376 77.6088 170.386L76.9583 171.034L76.9947 171.966C76.9966 172.014 76.9591 172.054 76.911 172.056C76.8947 172.057 76.8786 172.053 76.8644 172.045L76.128 171.626C76.105 171.612 76.0773 171.611 76.0526 171.62L75.265 171.933C75.2203 171.951 75.1696 171.929 75.1518 171.884C75.1458 171.869 75.1441 171.853 75.147 171.837L75.3128 170.919L74.7588 170.187C74.7297 170.149 74.7373 170.094 74.7757 170.065C74.7875 170.056 74.8014 170.05 74.8161 170.048L75.6982 169.924L76.1863 169.15C76.2119 169.109 76.2658 169.097 76.3065 169.122C76.321 169.131 76.3325 169.145 76.3395 169.16Z" fill="#f8f8f8"/>
<path fill-rule="evenodd" clip-rule="evenodd" d="M81.3476 122.836L81.7232 123.671L82.5793 123.917C82.6256 123.93 82.6524 123.978 82.6391 124.025C82.635 124.039 82.6273 124.052 82.6168 124.062L81.9663 124.71L82.0028 125.642C82.0046 125.69 81.9672 125.73 81.919 125.732C81.9028 125.733 81.8866 125.729 81.8725 125.721L81.1361 125.302C81.113 125.288 81.0853 125.287 81.0607 125.296L80.2731 125.609C80.2283 125.627 80.1776 125.605 80.1598 125.56C80.1538 125.545 80.1522 125.529 80.1551 125.513L80.3209 124.595L79.7668 123.863C79.7378 123.825 79.7453 123.77 79.7837 123.741C79.7956 123.732 79.8095 123.726 79.8242 123.724L80.7062 123.6L81.1943 122.826C81.22 122.785 81.2738 122.773 81.3146 122.798C81.3291 122.807 81.3406 122.821 81.3476 122.836Z" fill="#f8f8f8"/>
<path fill-rule="evenodd" clip-rule="evenodd" d="M157.901 109.814C158.054 109.712 158.259 109.755 158.359 109.91L160.619 113.412C160.719 113.567 160.677 113.775 160.524 113.877C160.371 113.979 160.166 113.935 160.066 113.78L157.806 110.279C157.706 110.123 157.749 109.915 157.901 109.814Z" fill="#f8f8f8"/>
<path fill-rule="evenodd" clip-rule="evenodd" d="M158.012 107.227C158.187 107.123 158.418 107.175 158.528 107.342L160.084 109.698C160.194 109.865 160.141 110.084 159.966 110.187C159.791 110.29 159.56 110.238 159.45 110.071L157.895 107.716C157.784 107.549 157.837 107.33 158.012 107.227Z" fill="#f8f8f8"/>
</svg>
